<svg xmlns="http://www.w3.org/2000/svg" viewBox="0 0 363.75718 376.71354" width="310.742154211" height="321.81021675">
  <title>FC Cincinnati primary logo</title>
  <g>
    <path d="M324.13463,26.67668c10.53459,29.86925,33.49906,110.82211,32.266,182.66433-39.25647,65.17081-106.34807,122.5409-174.51621,159.12866C113.71626,331.88191,46.61881,274.51182,7.36235,209.341,6.12928,137.49808,29.0879,56.54557,39.62249,26.67668,130.02879,1.09131,234.46527,1.09131,324.13463,26.67668Z" style="fill: #fff;fill-rule: evenodd"/>
    <path d="M324.13463,26.67668c10.53459,29.86925,33.49906,110.82211,32.266,182.66433-39.25647,65.17081-106.34807,122.5409-174.51621,159.12866C113.71626,331.88191,46.61881,274.51182,7.36235,209.341,6.12928,137.49808,29.0879,56.54557,39.62249,26.67668,130.02879,1.09131,234.46527,1.09131,324.13463,26.67668ZM34.02307,20.65417C131.84331-6.8874,227.58213-6.87937,329.726,20.64614,341.54265,52.5772,365.3619,138.1642,363.67178,211.37906,321.8467,283.94012,241.39188,346.07015,181.8786,376.71354,122.36533,346.07015,41.91051,283.94012.08543,211.37906-1.60469,138.1642,22.20641,52.58522,34.02307,20.65417Z" style="fill: #0b1f41;fill-rule: evenodd"/>
    <g style="fill: #0b1f41">
      <polygon points="107.4 180.166 100.295 159.211 91.709 164.129 91.709 210.815 100.207 205.948 100.207 182.992 107.036 202.035 115.783 197.025 115.783 150.34 107.4 155.141 107.4 180.166"/>
      <polygon points="302.339 43.485 302.339 90.168 311.794 84.753 311.794 38.07 302.339 43.485"/>
      <path d="M136.68971,137.21208c-6.90571,3.95547-11.5369,11.54115-11.51424,16.17526l-.00009,26.1163c0,4.7596,4.56895,9.41933,11.74655,5.9817,11.48-5.4982,11.23049-11.36568,11.20783-15.9998l.00009-6.50457-9.4063,5.38708v6.574l-4.1355,2.3684V148.46988l4.1355-2.3684v9.14384l9.4063-5.34675V140.319C148.10718,135.68486,143.4933,133.31508,136.68971,137.21208Z"/>
      <path d="M51.82239,185.82458c-6.90571,3.95547-11.5369,11.54115-11.51423,16.17526l-.00009,26.11629c0,4.75961,4.569,9.41934,11.74654,5.98171,11.48-5.4982,11.2305-11.36568,11.20783-15.9998l.00009-6.50457-9.40629,5.38708v6.574l-4.1355,2.3684V197.08238l4.1355-2.3684v9.14384l9.40629-5.34675v-9.5796C63.23987,184.29736,58.626,181.92758,51.82239,185.82458Z"/>
      <polygon points="156.944 173.474 166.4 168.059 166.4 121.376 156.944 126.791 156.944 173.474"/>
      <polygon points="72.076 222.06 81.532 216.645 81.532 169.961 72.076 175.377 72.076 222.06"/>
      <polygon points="270.925 70.412 277.402 66.703 277.402 104.463 286.858 99.048 286.858 61.287 293.335 57.578 293.335 48.643 270.925 61.478 270.925 70.412"/>
      <polygon points="192.268 131.59 185.163 110.635 176.577 115.553 176.577 162.221 185.075 157.354 185.075 134.416 191.903 153.443 200.651 148.433 200.651 101.763 192.268 106.565 192.268 131.59"/>
      <polygon points="226.336 112.048 219.231 91.092 210.645 96.01 210.645 142.678 219.143 137.811 219.143 114.873 225.971 133.901 234.719 128.891 234.719 82.221 226.336 87.023 226.336 112.048"/>
      <path d="M249.56525,73.81245l-6.09567,50.04233,9.25672-5.30138.6599-8.29732,5.40286-3.21088.92048,7.5085,9.09528-5.20891-7.17141-42.561Zm3.97154,27.9682,2.53838-18.13133L257.82034,99.14Z"/>
    </g>
    <path d="M280.55059,32.35653,23.83085,179.38811C27.48926,125.61838,41.93294,69.75319,51.785,39.59419,130.754,18.73914,211.7523,19.46575,280.55059,32.35653ZM82.6059,62.039V72.45256h6.31928v8.46907H82.6059v20.55686l-10.52943,6.06358V53.9135H92.791V62.039ZM123.73979,80.251V91.92231c0,4.6351-4.97863,9.55537-12.58874,9.55537-7.72434,0-12.93144-4.92027-12.93144-9.55537V62.61087c0-4.6351,5.2071-9.55536,12.93144-9.55536,7.61011,0,12.58874,4.92026,12.58874,9.55536v3.77265L113.3256,72.34771l-.00281-11.69022-4.45917,2.55588V93.89654l4.45934-2.55423.00264-5.12686Z" style="fill: #263b80;fill-rule: evenodd"/>
    <path d="M57.79048,251.02053,327.35074,96.63576c7.41887,33.18063,13.56427,71.93808,13.43072,108.21845-39.83463,64.09734-101.23941,112.44756-158.897,145.74831C124.71026,317.30177,89.4146,286.84113,57.79048,251.02053Zm187.28144-40.95922a19.41434,19.41434,0,0,0,7.13823-3.66626,17.39008,17.39008,0,0,1-2.05471,9.01062A24.52719,24.52719,0,0,0,245.07192,210.06131ZM191.526,214.32907l8.18951-4.68827a16.322,16.322,0,0,1-6.91861-3.86319l21.911-12.60233-2.54709-3.51323h33.7708l2.08931,3.54117s5.59589,1.31078,8.78967,4.46871l-5.182.80508,2.5604,2.88912c-1.93758,2.406-6.99619,5.57214-11.8215,6.55157a49.56379,49.56379,0,0,0-7.26964-4.071l8.10439-4.64037s-4.695-2.905-15.63915-5.9698a67.28352,67.28352,0,0,1,8.437,6.25059l-7.045,4.03489s12.3907,5.681,19.18423,17.8881l-8.20543.18365s-9.50435,17.58205-24.59386,27.54282v-9.97541s-9.87165-1.05929-15.48743-5.37762l5.50272-3.283a23.28844,23.28844,0,0,1-11.933-6.86673L200.631,219.547S196.28617,218.97076,191.526,214.32907Zm46.61132-22.25835a9.93291,9.93291,0,0,0,7.98328,3.51588l-2.221-3.28963Zm-83.5,84.87741.81308,7.17282c-4.84781,3.20293-17.508,10.43733-27.61334,5.49471-7.57981-3.70736-9.24671-14.39978-3.55977-23.46268,6.60294-10.52267,17.23924-10.738,23.10735-6.87472a17.9635,17.9635,0,0,1-8.44767,11.44457l1.561-6.24394c-3.57712-1.80584-8.21083-.17567-10.85636,4.164-3.55981,5.83673-2.53912,12.56107,2.27426,14.99105C139.88975,287.65946,154.63727,276.94813,154.63727,276.94813Zm127.49239-29.38192s5.10887-.0133,5.49078,4.45807a5.838,5.838,0,0,0-4.47134-.38193,28.86674,28.86674,0,0,1-12.99225,1.44254L259.3111,264.68515a44.90661,44.90661,0,0,0,.79583,5.26451,79.5884,79.5884,0,0,1-18.44843-9.66135l3.84991,6.86674s-2.95028,7.54543-18.805,17.66456l-.63744-6.81352s-15.85074-9.94347-25.46945-7.98058c-9.08646,16.576-25.20069,14.496-25.20069,14.496l-4.4581,15.92924s15.031,2.03738,12.05273,14.10742l-4.12265-2.45792a4.89918,4.89918,0,0,1-2.36214,4.69093l-3.34689-4.62307c1.27618,3.82328-4.95178,5.38294-4.95178,5.38294s-.30873-4.156-1.57955-5.81277l-4.83068-5.97114-4.53925-37.63533,5.71293,2.406A67.935,67.935,0,0,0,181.93522,244.761s19.45177,9.8716,33.30368,8.32393c2.913-.41387,18.12361-11.04534,26.96258-28.07645l6.95857-.15569a51.05877,51.05877,0,0,1,6.93591,17.79362l-4.97169-.93285a40.98339,40.98339,0,0,1,2.82252,8.21213l12.87252-7.4669c7.67983-4.50863,18.65992-5.36964,20.27814-.80245,0,0-3.59308-.28345-4.46071,1.35605,0,0,4.88786-.358,5.36432,3.72614C288.00106,246.73849,283.86232,245.55543,282.12966,247.56621Zm-69.7,60.41533-3.118-2.28891a4.012,4.012,0,0,1-1.36138,3.97233,14.75875,14.75875,0,0,0-3.0328-3.49592c.09316,2.32484-3.31221,4.25046-3.31221,4.25046a8.11836,8.11836,0,0,0-2.06405-3.87652l-4.297-4.10408-11.8305-15.84671c12.88844-.74257,19.68732-13.39946,19.68732-13.39946,16.79561,15.97048-4.06011,19.59416-4.06011,19.59416l1.28682,5.68368S214.45372,297.41128,212.42963,307.98154ZM253.151,223.7389c2.29293,3.0887,5.15541,10.12179,6.763,17.72577l6.15478-9.64139,2.04537,4.67631c4.04557-7.39372,7.87013-14.26446,9.88756-17.87614a6.74106,6.74106,0,0,0,2.72675.71594v2.66819a5.451,5.451,0,0,0-.4378,2.14385,6.72132,6.72132,0,0,0,2.44726,2.23835,6.72492,6.72492,0,0,0,2.44458-2.23835,5.42448,5.42448,0,0,0-.44713-2.14385v-2.66819c.7825-.12508,1.63949-.38725,2.58168-.6401,1.2536-3.10732.7-7.69847.7-7.69847a9.47216,9.47216,0,0,0,1.7926-3.18318,8.56323,8.56323,0,0,0-5.08353-2.237v-.26348l5.76353-3.51056V197.954l-3.63434,2.21175-.02924-47.7212-4.13736-4.40746-4.13337,4.15863.02924,47.99131-3.979-2.422v4.04155l5.874,3.26035-.02128.32339a8.32721,8.32721,0,0,0-5.06484,1.26422,8.32132,8.32132,0,0,0,1.28146,3.61436ZM172.81684,233.701l-16.95127,9.56421c3.76068,2.61761,15.37294.81975,23.798-3.76208,0,0,18.3499,9.97941,32.06341,10.05925-.004-.00132-.03988-7.57205-.04256-7.57205C186.3653,235.9726,178.95294,218.143,174.117,205.57264l-50.581,28.91483c6.53272,5.30177,25.91927-4.36889,41.283-12.74472.34463.688.73856,1.44255,1.18034,2.24233l-26.7776,15.34771c6.6658,5.15936,20.19566-2.22238,31.88378-7.592C171.6391,232.40216,172.2326,233.05956,172.81684,233.701Zm71.14793-53.8919a8.51153,8.51153,0,0,0-3.10071-2.83191,8.51522,8.51522,0,0,0-3.09406,2.83855,11.67786,11.67786,0,0,0,.56556,3.22578l-3.54369.00269a18.136,18.136,0,0,0,.77524-4.81839,13.86767,13.86767,0,0,0-5.05771-4.61722,13.87245,13.87245,0,0,0-5.047,4.62806,18.16251,18.16251,0,0,0,.78726,4.81894l-3.53456.00185a11.64148,11.64148,0,0,0,.55888-3.22573,8.50173,8.50173,0,0,0-3.10059-2.83056,8.50486,8.50486,0,0,0-3.09406,2.83721,11.65484,11.65484,0,0,0,.56687,3.22573h-.00131l.004,3.9577,25.76225-.02927-.00538-3.95635A11.64332,11.64332,0,0,0,243.96477,179.80908Z" style="fill: #f05323;fill-rule: evenodd"/>
  </g>
</svg>
