<?xml version="1.0" encoding="UTF-8" standalone="no"?>
<svg
   xmlns:dc="http://purl.org/dc/elements/1.1/"
   xmlns:cc="http://creativecommons.org/ns#"
   xmlns:rdf="http://www.w3.org/1999/02/22-rdf-syntax-ns#"
   xmlns:svg="http://www.w3.org/2000/svg"
   xmlns="http://www.w3.org/2000/svg"
   xmlns:sodipodi="http://sodipodi.sourceforge.net/DTD/sodipodi-0.dtd"
   xmlns:inkscape="http://www.inkscape.org/namespaces/inkscape"
   viewBox="0 0 73.204354 100.04772"
   height="100.04772"
   width="73.204353"
   xml:space="preserve"
   id="svg2"
   version="1.1"
   inkscape:version="0.48.5 r10040"
   sodipodi:docname="LAFC.svg"><sodipodi:namedview
     pagecolor="#ffffff"
     bordercolor="#666666"
     borderopacity="1"
     objecttolerance="10"
     gridtolerance="10"
     guidetolerance="10"
     inkscape:pageopacity="0"
     inkscape:pageshadow="2"
     inkscape:window-width="1920"
     inkscape:window-height="1017"
     id="namedview40"
     showgrid="false"
     fit-margin-top="0"
     fit-margin-left="0"
     fit-margin-right="0"
     fit-margin-bottom="0"
     inkscape:zoom="5.579306"
     inkscape:cx="45.870573"
     inkscape:cy="38.061408"
     inkscape:window-x="-8"
     inkscape:window-y="-8"
     inkscape:window-maximized="1"
     inkscape:current-layer="svg2" /><metadata
     id="metadata8"><rdf:RDF><cc:Work
         rdf:about=""><dc:format>image/svg+xml</dc:format><dc:type
           rdf:resource="http://purl.org/dc/dcmitype/StillImage" /></cc:Work></rdf:RDF></metadata><defs
     id="defs6"><clipPath
       id="clipPath20"
       clipPathUnits="userSpaceOnUse"><path
         id="path18"
         d="M 0,0 H 3714 V 5075.89 H 0 z"
         inkscape:connector-curvature="0" /></clipPath></defs><g
     transform="matrix(0.19710381,0,0,-0.19710381,0,100.04772)"
     id="g10"><g
       transform="scale(0.1,0.1)"
       id="g12"><g
         id="g14"><g
           clip-path="url(#clipPath20)"
           id="g16"><path
             id="path22"
             style="fill:#17191d;fill-opacity:1;fill-rule:nonzero;stroke:none"
             d="m 1694.95,162.102 c -173.84,155.687 -375.97,187.808 -609.98,225 -34.04,5.308 -69.98,11.066 -107.333,17.437 C 527.98,480.41 390.387,562.16 237.715,696.141 40.4453,869.238 12.9766,1215.24 12.7188,1458.38 l 0.4804,3604.79 H 3700.28 l 1.14,-3604.97 c -1.2,-226.28 -19.79,-579.591 -226.75,-762.54 -153.08,-135.308 -282.39,-214.25 -738.46,-291.191 -31.38,-5.348 -62.25,-10.297 -92.61,-15.149 l -14.2,-2.3 C 2395.09,349.871 2192.87,317.809 2019.01,162.121 L 1856.97,17.0391 1694.95,162.102"
             inkscape:connector-curvature="0" /><path
             id="path24"
             style="fill:#c6a566;fill-opacity:1;fill-rule:nonzero;stroke:none"
             d="m 1856.96,0 -170.51,152.648 c -170.99,153.141 -371.31,184.993 -603.27,221.891 -34.29,5.332 -70.27,11.109 -107.668,17.481 C 540.711,465.379 393.91,542.191 229.328,686.602 75.4375,821.621 0.425781,1074.07 0,1458.36 l 0.5,3617.53 h 3712.49 l 1.15,-3617.68 c -1.45,-265.65 -28.99,-593.421 -231.06,-772.069 -146.63,-129.61 -269.92,-214.09 -744.75,-294.192 -30.95,-5.277 -61.42,-10.148 -91.39,-14.969 l -15.52,-2.48 C 2399.09,337.641 2198.51,305.84 2027.48,152.672 z M 1703.42,171.539 1856.96,34.0781 2010.52,171.578 c 176.63,158.172 380.61,190.531 616.81,227.981 l 14.26,2.312 c 31.25,4.988 61.6,9.84 92.5,15.141 468.17,78.949 588.93,161.539 732.18,288.187 196.71,173.891 221.16,513.091 222.45,753.091 l -1.14,3592.19 H 25.9102 l -0.5,-3592.1 C 25.8359,1081.84 98.0156,835.641 246.109,705.699 386.594,582.422 513.559,495.719 979.754,417.078 c 37.316,-6.367 73.156,-12.109 107.186,-17.43 236.14,-37.539 439.89,-69.949 616.48,-228.109"
             inkscape:connector-curvature="0" /><path
             id="path26"
             style="fill:#c6a566;fill-opacity:1;fill-rule:nonzero;stroke:none"
             d="m 1759.75,234.48 c -195.14,174.75 -420.72,210.598 -659.54,248.551 -33.85,5.297 -69.36,11.008 -106.253,17.278 C 196.785,634.801 110.492,892.891 109.863,1458.49 l 0.5,3507.53 H 3603.15 l 1.11,-3507.84 C 3603.13,1243.7 3587.24,924.84 3410.33,768.449 3272.42,646.52 3156.16,573.84 2720.06,500.281 c -31.24,-5.34 -61.77,-10.23 -91.77,-15.019 l -14.28,-2.301 c -239.06,-37.91 -464.64,-73.68 -659.82,-248.481 l -97.22,-87.05 -97.22,87.05"
             inkscape:connector-curvature="0" /><path
             id="path28"
             style="fill:#17191d;fill-opacity:1;fill-rule:nonzero;stroke:none"
             d="M 3457.46,4820.3 H 256.066 l -0.48,-3361.66 c 0.535,-462.16 -0.168,-685.949 762.814,-814.671 36.23,-6.168 71.09,-11.739 104.68,-17 249.43,-39.641 506.89,-80.649 733.89,-283.918 227.09,203.371 484.72,244.277 733.98,283.808 34.11,5.461 68.8,10.942 104.84,17.11 763.04,128.722 760.3,352.511 762.76,814.171 l -1.09,3362.16"
             inkscape:connector-curvature="0" /><path
             id="path30"
             style="fill:#c6a566;fill-opacity:1;fill-rule:nonzero;stroke:none"
             d="m 738.715,4388.47 h 64.379 v -186.4 h 102.203 v -54.12 H 738.715 v 240.52"
             inkscape:connector-curvature="0" /><path
             id="path32"
             style="fill:#c6a566;fill-opacity:1;fill-rule:nonzero;stroke:none"
             d="m 918.023,4268.21 c 0,72.51 59.786,123.09 129.107,123.09 69.33,0 129.1,-50.58 129.1,-123.09 0,-72.51 -59.77,-123.44 -129.1,-123.44 -69.321,0 -129.107,50.93 -129.107,123.44 m 192.417,0 c 0,37.86 -22.98,67.19 -63.31,67.19 -40.32,0 -63.318,-29.33 -63.318,-67.19 0,-37.84 22.998,-67.57 63.318,-67.57 40.33,0 63.31,29.73 63.31,67.57"
             inkscape:connector-curvature="0" /><path
             id="path34"
             style="fill:#c6a566;fill-opacity:1;fill-rule:nonzero;stroke:none"
             d="m 1180.82,4188.98 46.69,35.02 c 11.67,-14.5 26.17,-26.18 50.21,-26.18 19.12,0 30.43,5.66 30.43,19.11 0,10.26 -7.78,15.21 -23.7,20.52 l -28.29,9.54 c -35.02,11.67 -59.78,32.89 -59.78,72.51 0,47.39 39.26,71.79 82.06,71.79 42.44,0 65.79,-15.21 79.94,-31.82 l -36.8,-38.56 c -9.89,10.26 -20.5,17.33 -39.6,17.33 -15.57,0 -23.35,-7.07 -23.35,-16.63 0,-9.18 5.31,-13.78 16.98,-17.67 l 31.84,-10.61 c 48.1,-15.93 64.36,-38.92 64.36,-72.86 0,-44.21 -27.58,-76.05 -91.25,-76.05 -54.1,0 -84.89,24.76 -99.74,44.56"
             inkscape:connector-curvature="0" /><path
             id="path36"
             style="fill:#c6a566;fill-opacity:1;fill-rule:nonzero;stroke:none"
             d="m 1487.82,4147.95 h -62.97 l 117.09,244.76 c 1.06,2.48 3.19,2.48 4.24,0 l 116.72,-244.76 h -66.49 l -9.2,20.51 h -90.55 z m 53.42,124.5 -24.06,-55.88 h 48.8 l -24.74,55.88"
             inkscape:connector-curvature="0" /><path
             id="path38"
             style="fill:#c6a566;fill-opacity:1;fill-rule:nonzero;stroke:none"
             d="m 1745.65,4267.86 v -119.91 h -60.47 v 243.71 c 0,2.11 1.06,3.88 4.95,0.7 l 151.02,-124.5 v 120.61 h 60.49 v -244.06 c 0,-2.83 -1.06,-3.89 -4.95,-0.7 l -151.04,124.15"
             inkscape:connector-curvature="0" /><path
             id="path40"
             style="fill:#c6a566;fill-opacity:1;fill-rule:nonzero;stroke:none"
             d="m 2108.55,4228.95 h -47.75 v 49.52 h 105.05 v -100.45 c -22.28,-18.4 -51.28,-33.25 -104.7,-33.25 -70.73,0 -129.46,50.93 -129.46,123.44 0,72.51 58.73,123.09 128.06,123.09 42.43,0 75.67,-15.92 96.55,-42.8 l -44.92,-38.91 c -12.04,15.57 -29,25.82 -53.06,25.82 -39.27,0 -60.84,-29.36 -60.84,-67.2 0,-37.83 21.93,-69.32 64.38,-69.32 23.35,0 36.43,4.59 46.69,9.54 v 20.52"
             inkscape:connector-curvature="0" /><path
             id="path42"
             style="fill:#c6a566;fill-opacity:1;fill-rule:nonzero;stroke:none"
             d="m 2198.01,4388.47 h 168.71 v -54.12 h -104.33 v -55.88 h 87 v -51.28 h -87 v -25.12 h 109.3 v -54.12 h -173.68 v 240.52"
             inkscape:connector-curvature="0" /><path
             id="path44"
             style="fill:#c6a566;fill-opacity:1;fill-rule:nonzero;stroke:none"
             d="m 2402.8,4388.47 h 64.38 v -186.4 h 102.22 v -54.12 h -166.6 v 240.52"
             inkscape:connector-curvature="0" /><path
             id="path46"
             style="fill:#c6a566;fill-opacity:1;fill-rule:nonzero;stroke:none"
             d="m 2599.09,4388.47 h 168.71 v -54.12 h -104.33 v -55.88 h 87 v -51.28 h -87 v -25.12 h 109.28 v -54.12 h -173.66 v 240.52"
             inkscape:connector-curvature="0" /><path
             id="path48"
             style="fill:#c6a566;fill-opacity:1;fill-rule:nonzero;stroke:none"
             d="m 2784.43,4188.98 46.69,35.02 c 11.67,-14.5 26.17,-26.18 50.23,-26.18 19.09,0 30.41,5.66 30.41,19.11 0,10.26 -7.78,15.21 -23.71,20.52 l -28.28,9.54 c -35.02,11.67 -59.77,32.89 -59.77,72.51 0,47.39 39.25,71.79 82.05,71.79 42.43,0 65.79,-15.21 79.94,-31.82 l -36.8,-38.56 c -9.89,10.26 -20.51,17.33 -39.6,17.33 -15.56,0 -23.34,-7.07 -23.34,-16.63 0,-9.18 5.3,-13.78 16.97,-17.67 l 31.84,-10.61 c 48.09,-15.93 64.37,-38.92 64.37,-72.86 0,-44.21 -27.59,-76.05 -91.27,-76.05 -54.1,0 -84.88,24.76 -99.73,44.56"
             inkscape:connector-curvature="0" /><path
             id="path50"
             style="fill:#c6a566;fill-opacity:1;fill-rule:nonzero;stroke:none"
             d="m 738.344,1327.64 h 134.707 v -44.6 h -81.645 v -46.08 h 72.012 v -44.6 h -72.012 v -62.99 h -53.062 v 198.27"
             inkscape:connector-curvature="0" /><path
             id="path52"
             style="fill:#c6a566;fill-opacity:1;fill-rule:nonzero;stroke:none"
             d="m 886.754,1228.51 c 0,59.77 49.266,101.46 106.422,101.46 57.134,0 106.424,-41.69 106.424,-101.46 0,-59.77 -49.29,-101.76 -106.424,-101.76 -57.156,0 -106.422,41.99 -106.422,101.76 m 158.616,0 c 0,31.21 -18.97,55.39 -52.194,55.39 -33.246,0 -52.192,-24.18 -52.192,-55.39 0,-31.19 18.946,-55.7 52.192,-55.7 33.224,0 52.194,24.51 52.194,55.7"
             inkscape:connector-curvature="0" /><path
             id="path54"
             style="fill:#c6a566;fill-opacity:1;fill-rule:nonzero;stroke:none"
             d="m 1114.75,1228.51 c 0,59.77 49.29,101.46 106.43,101.46 57.15,0 106.42,-41.69 106.42,-101.46 0,-59.77 -49.27,-101.76 -106.42,-101.76 -57.14,0 -106.43,41.99 -106.43,101.76 m 158.62,0 c 0,31.21 -18.95,55.39 -52.19,55.39 -33.25,0 -52.2,-24.18 -52.2,-55.39 0,-31.19 18.95,-55.7 52.2,-55.7 33.24,0 52.19,24.51 52.19,55.7"
             inkscape:connector-curvature="0" /><path
             id="path56"
             style="fill:#c6a566;fill-opacity:1;fill-rule:nonzero;stroke:none"
             d="m 1384.16,1283.04 h -52.47 v 44.6 h 158.03 v -44.6 h -52.49 v -153.66 h -53.07 v 153.66"
             inkscape:connector-curvature="0" /><path
             id="path58"
             style="fill:#c6a566;fill-opacity:1;fill-rule:nonzero;stroke:none"
             d="m 1513.61,1327.64 h 81.05 c 39.38,0 65.03,-18.08 65.03,-48.4 0,-22.17 -9.91,-32.37 -22.74,-38.48 21.57,-6.13 39.95,-21.58 39.95,-51.9 0,-37.91 -29.45,-59.49 -78.72,-59.49 h -84.57 z m 76.98,-73.18 c 11.67,0 16.91,5.84 16.91,15.15 0,9.34 -4.67,16.04 -16.34,16.04 h -26.22 v -31.19 z m 6.41,-83.1 c 20.41,0 26.83,8.74 26.83,22.46 0,13.69 -6.7,22.16 -26.83,22.16 h -32.06 v -44.62 H 1597"
             inkscape:connector-curvature="0" /><path
             id="path60"
             style="fill:#c6a566;fill-opacity:1;fill-rule:nonzero;stroke:none"
             d="m 1732.58,1129.38 h -51.9 l 96.52,201.75 c 0.87,2.06 2.61,2.06 3.48,0 l 96.22,-201.75 h -54.81 l -7.57,16.91 h -74.64 z m 44.03,102.62 -19.82,-46.06 h 40.23 l -20.41,46.06"
             inkscape:connector-curvature="0" /><path
             id="path62"
             style="fill:#c6a566;fill-opacity:1;fill-rule:nonzero;stroke:none"
             d="m 1895.27,1327.64 h 53.06 v -153.65 h 84.27 v -44.62 h -137.33 v 198.27"
             inkscape:connector-curvature="0" /><path
             id="path64"
             style="fill:#c6a566;fill-opacity:1;fill-rule:nonzero;stroke:none"
             d="m 2057.08,1327.64 h 53.07 v -153.65 h 84.27 v -44.62 h -137.34 v 198.27"
             inkscape:connector-curvature="0" /><path
             id="path66"
             style="fill:#c6a566;fill-opacity:1;fill-rule:nonzero;stroke:none"
             d="m 2348.07,1126.76 c -55.69,0 -103.22,41.98 -103.22,101.75 0,59.77 47.25,101.46 100.31,101.46 42.84,0 69.09,-18.08 85.72,-42.56 l -39.95,-27.12 c -7.58,11.65 -19.84,23.62 -44.9,23.62 -29.17,0 -46.95,-24.21 -46.95,-55.4 0,-31.21 18.37,-55.69 48.69,-55.69 25.65,0 38.19,11.67 46.66,27.41 l 40.82,-26.24 c -19.54,-32.95 -46.95,-47.23 -87.18,-47.23"
             inkscape:connector-curvature="0" /><path
             id="path68"
             style="fill:#c6a566;fill-opacity:1;fill-rule:nonzero;stroke:none"
             d="m 2455.65,1327.64 h 53.06 v -153.65 h 84.27 v -44.62 h -137.33 v 198.27"
             inkscape:connector-curvature="0" /><path
             id="path70"
             style="fill:#c6a566;fill-opacity:1;fill-rule:nonzero;stroke:none"
             d="m 2608.14,1206.06 v 121.58 h 53.06 v -121 c 0,-22.45 10.5,-35.27 32.95,-35.27 22.45,0 32.95,12.82 32.95,35.27 v 121 h 53.06 v -121.58 c 0,-53.36 -36.45,-79.6 -86.01,-79.6 -49.56,0 -86.01,26.24 -86.01,79.6"
             inkscape:connector-curvature="0" /><path
             id="path72"
             style="fill:#c6a566;fill-opacity:1;fill-rule:nonzero;stroke:none"
             d="m 2812.51,1327.64 h 81.05 c 39.38,0 65.03,-18.08 65.03,-48.4 0,-22.17 -9.91,-32.37 -22.74,-38.48 21.58,-6.13 39.95,-21.58 39.95,-51.9 0,-37.91 -29.45,-59.49 -78.74,-59.49 h -84.55 z m 76.98,-73.18 c 11.67,0 16.91,5.84 16.91,15.15 0,9.34 -4.67,16.04 -16.34,16.04 h -26.22 v -31.19 z m 6.41,-83.1 c 20.41,0 26.83,8.74 26.83,22.46 0,13.69 -6.7,22.16 -26.83,22.16 h -32.06 v -44.62 h 32.06"
             inkscape:connector-curvature="0" /><path
             id="path74"
             style="fill:#c6a566;fill-opacity:1;fill-rule:nonzero;stroke:none"
             d="M 1075.63,1999.75 V 3620.38 L 736.488,3869.93 V 1650.67 H 1812.33 c -46.17,111.38 -80.18,273.96 -94.4,349.08 h -642.3"
             inkscape:connector-curvature="0" /><path
             id="path76"
             style="fill:#c6a566;fill-opacity:1;fill-rule:nonzero;stroke:none"
             d="m 2144.05,2212.64 c -105.03,49.65 -212.82,100.66 -330.58,158.37 -0.11,-141.98 13.02,-270.18 28.32,-370.88 14.2,-75.03 48.25,-237.93 94.47,-349.46 h 340.15 c 0,0 -91.05,253.29 -118.48,555.41 -4.62,2.19 -9.28,4.39 -13.88,6.56"
             inkscape:connector-curvature="0" /><path
             id="path78"
             style="fill:#c6a566;fill-opacity:1;fill-rule:nonzero;stroke:none"
             d="m 2119.84,3371.1 c -31.23,-40.02 -60.03,-82.22 -86.61,-126.28 l 244.91,-271.48 c 81.23,162.69 201.4,290.86 360.36,383.22 v -782.72 l 0.02,-0.02 V 2441.91 L 1348.89,3871.27 v -335.35 c 297.34,-265.61 791.52,-744.5 1094.81,-1016.52 v -17.76 l -995.02,877.07 v -213.12 h 0.11 c 302.7,-229.24 688.03,-538.6 994.91,-770.97 v -17.05 l -893.22,668.22 v -200.04 c 297.09,-178.7 606.66,-386.3 893.22,-557.51 v -19.28 l -791.9,474.05 v -161.06 c 349.56,-176.29 641.25,-335.77 986.72,-509.35 v -99.98 l -0.02,0.02 v -323.03 h 339.15 v 2209.23 c -377.78,-38.86 -663.93,-227.85 -857.81,-487.74"
             inkscape:connector-curvature="0" /></g></g></g></g></svg>