<?xml version="1.0" encoding="UTF-8" standalone="no"?>
<svg
   xmlns:dc="http://purl.org/dc/elements/1.1/"
   xmlns:cc="http://creativecommons.org/ns#"
   xmlns:rdf="http://www.w3.org/1999/02/22-rdf-syntax-ns#"
   xmlns:svg="http://www.w3.org/2000/svg"
   xmlns="http://www.w3.org/2000/svg"
   xmlns:xlink="http://www.w3.org/1999/xlink"
   xmlns:sodipodi="http://sodipodi.sourceforge.net/DTD/sodipodi-0.dtd"
   xmlns:inkscape="http://www.inkscape.org/namespaces/inkscape"
   id="Layer_1"
   viewBox="0 0 1000 1431.5961"
   version="1.1"
   sodipodi:docname="Nashville_SC.svg"
   width="1000"
   height="1431.5961"
   inkscape:version="0.92.4 (5da689c313, 2019-01-14)">
  <metadata
     id="metadata27">
    <rdf:RDF>
      <cc:Work
         rdf:about="">
        <dc:format>image/svg+xml</dc:format>
        <dc:type
           rdf:resource="http://purl.org/dc/dcmitype/StillImage" />
        <dc:title></dc:title>
      </cc:Work>
    </rdf:RDF>
  </metadata>
  <sodipodi:namedview
     pagecolor="#ffffff"
     bordercolor="#666666"
     borderopacity="1"
     objecttolerance="10"
     gridtolerance="10"
     guidetolerance="10"
     inkscape:pageopacity="0"
     inkscape:pageshadow="2"
     inkscape:window-width="1920"
     inkscape:window-height="1028"
     id="namedview25"
     showgrid="false"
     inkscape:zoom="0.25704776"
     inkscape:cx="-648.08816"
     inkscape:cy="73.974571"
     inkscape:window-x="-8"
     inkscape:window-y="-8"
     inkscape:window-maximized="1"
     inkscape:current-layer="Layer_1"
     fit-margin-top="0"
     fit-margin-left="0"
     fit-margin-right="0"
     fit-margin-bottom="0" />
  <style
     id="style2">.st0{fill:#fff}.st2{clip-path:url(#SVGID_2_);fill:#1f1646}</style>
  <defs
     id="defs13">
    <path
       id="SVGID_1_"
       d="M 11.3,0.6 H 72.7 V 88.5 H 11.3 Z"
       inkscape:connector-curvature="0" />
  </defs>
  <clipPath
     id="SVGID_2_">
    <use
       xlink:href="#SVGID_1_"
       overflow="visible"
       id="use15"
       style="overflow:visible"
       x="0"
       y="0"
       width="100%"
       height="100%" />
  </clipPath>
  <path
     clip-path="url(#SVGID_2_)"
     d="M 30.5,0.6 11.3,16.5 v 56 l 19.2,16 h 23.1 l 19.1,-16 v -56 L 53.6,0.6 Z"
     id="path18"
     inkscape:connector-curvature="0"
     transform="matrix(16.286645,0,0,16.286645,-184.03909,-9.771987)"
     style="fill:#ece83a" />
  <path
     class="st2"
     d="m 52.8,2.7 17.8,14.8 v 54 L 52.8,86.4 H 31.2 L 13.4,71.5 v -54 L 31.2,2.7 Z M 53.2,1.6 H 30.8 L 12.4,17 V 72 L 30.9,87.4 H 53.2 L 71.6,72 V 17 l -0.4,-0.3 z"
     clip-path="url(#SVGID_2_)"
     id="path20"
     inkscape:connector-curvature="0"
     transform="matrix(16.286645,0,0,16.286645,-184.03909,-9.771987)"
     style="fill:#1f1646" />
  <path
     class="st2"
     d="M 37.8,54.9 V 37.8 l 8,17.1 h 4.7 l -17,-36 v 36 z M 46.2,9 v 17 l -8,-17 h -4.7 l 17,35.9 V 9 Z m -20.1,5.7 h 3.2 v 34.4 h -3.2 z m -6.3,5.8 h 2.1 v 22.9 h -2.1 z m 34.9,-5.8 h 3.2 v 34.4 h -3.2 z m 7.4,5.8 h 2.1 V 43.4 H 62.1 Z M 41.4,76 39,73.6 v -1.7 h 0.9 v 1.7 h 1.4 v -2.2 l -0.7,-0.8 h -2.3 l -0.7,0.8 v 3 l 2.3,2.3 v 2 H 39 v -2 h -1.4 v 2.6 l 0.7,0.8 h 2.3 l 0.8,-0.8 z m 1.3,-4.6 v 7.9 l 0.8,0.8 h 2.2 l 0.7,-0.8 V 76.7 H 45 v 2 H 44.2 V 71.9 H 45 v 1.7 h 1.4 v -2.2 l -0.7,-0.8 h -2.2 z m -6.1,-6.9 -2.4,-2.4 v -1.7 h 0.9 v 1.7 h 1.4 v -2.3 l -0.7,-0.7 h -2.2 l -0.8,0.7 v 3 l 2.3,2.3 v 2.1 h -0.8 v -2.1 h -1.5 v 2.7 l 0.8,0.7 h 2.3 l 0.7,-0.7 z m -13.4,-5.4 1.7,5.1 v -5.1 h 1.5 v 9.4 h -1.3 l -1.8,-5.1 v 5.1 h -1.4 v -9.4 z m 16.2,0 V 63 h 0.9 v -3.9 h 1.4 v 9.4 h -1.4 v -4.2 h -0.9 v 4.2 h -1.5 v -9.4 z m 4.9,0 0.8,7.4 0.9,-7.4 h 1.4 l -1.3,9.4 h -1.9 l -1.3,-9.4 z m 4.3,0 H 50 v 9.4 h -1.4 z m 4.2,0 v 8 h 1.3 v 1.4 h -2.7 v -9.4 z m 3.8,0 v 8 H 58 v 1.4 h -2.8 v -9.4 z m 5.5,1.4 H 60.5 V 63 H 62 v 1.3 h -1.5 v 2.8 h 1.6 v 1.4 H 59 v -9.4 h 3.1 z m -31.6,8 h 1.4 l -1.3,-9.4 h -1.9 l -1.3,9.4 h 1.4 L 29,66.9 h 1.4 z m -1.4,-2.9 0.5,-4.5 0.5,4.5 z"
     clip-path="url(#SVGID_2_)"
     id="path22"
     inkscape:connector-curvature="0"
     transform="matrix(16.286645,0,0,16.286645,-184.03909,-9.771987)"
     style="fill:#1f1646" />
</svg>
